Coordinates
version=1
nRows=7
nColumns=42
inDegrees=yes

Units are S.I. units (second, meters, Newtons, ...)
If the header above contains a line with 'inDegrees', this indicates whether rotational values are in degrees (yes) or radians (no).

endheader
time	pelvis_tilt	pelvis_list	pelvis_rotation	pelvis_tx	pelvis_ty	pelvis_tz	hip_flexion_r	hip_adduction_r	hip_rotation_r	knee_angle_r	knee_adduction_r	knee_angle_r_beta	ankle_angle_r	subtalar_angle_r	mtp_angle_r	hip_flexion_l	hip_adduction_l	hip_rotation_l	knee_angle_l	knee_adduction_l	knee_angle_l_beta	ankle_angle_l	subtalar_angle_l	mtp_angle_l	lumbar_extension	lumbar_bending	lumbar_rotation	arm_flex_r	arm_add_r	arm_rot_r	elbow_flex_r	pro_sup_r	wrist_flex_r	wrist_dev_r	arm_flex_l	arm_add_l	arm_rot_l	elbow_flex_l	pro_sup_l	wrist_flex_l	wrist_dev_l
      1.30000000	     10.59583396	      7.31489843	     19.13058906	      0.15656913	      0.90435004	      0.48035955	     -9.14985993	     -1.00115674	    -21.16009429	     20.21534337	      2.87200714	      0.35282430	     20.55515488	     -0.88479184	     -7.98383016	     25.25706549	     -7.73772710	      2.84092807	     26.65008920	      5.80740480	      0.46513180	      6.97376457	      7.44425795	     -7.98383016	    -25.13021007	     -5.51880071	     -0.20583326	    -11.98269735	    -23.16613942	    -29.65555676	     65.05406801	     90.00000001	      0.00000000	      0.00000000	     -0.05560180	    -20.62613660	     14.86644933	     85.30942737	     90.00000001	      0.00000000	      0.00000000
      1.31000000	     11.16727287	      7.29843114	     18.76504619	      0.15907798	      0.90407339	      0.48033818	     -9.83552657	     -0.80307368	    -20.89928855	     20.34079429	      2.87830349	      0.35501383	     21.19698599	     -1.28237637	     -7.97406928	     25.61687031	     -7.75216454	      2.03080436	     27.33949957	      5.76866257	      0.47716428	      6.91817139	      7.63209212	     -7.97406928	    -25.51161523	     -5.36291827	      0.04851920	    -12.00155486	    -23.29724521	    -29.02260851	     66.15596688	     90.00000001	      0.00000000	      0.00000000	     -0.39346496	    -20.71050289	     14.33152690	     85.33806264	     90.00000001	      0.00000000	      0.00000000
      1.32000000	     11.33803322	      7.24222940	     18.56885234	      0.16139080	      0.90351295	      0.48006219	    -10.04027974	     -0.72290979	    -20.75025806	     20.57940080	      2.86160646	      0.35917830	     21.09718625	     -1.17304621	     -7.97061726	     26.07812996	     -7.51331776	      1.96329749	     27.36194745	      5.87189416	      0.47755607	      6.88902810	      7.66459474	     -7.97061726	    -25.47513761	     -5.30793321	      0.33224561	    -11.85539398	    -23.26432112	    -28.91348899	     66.24042170	     90.00000001	      0.00000000	      0.00000000	     -0.49426491	    -20.76470992	     14.27726972	     85.28038397	     90.00000001	      0.00000000	      0.00000000
      1.33000000	     11.88797418	      7.22122859	     18.16052101	      0.16415046	      0.90334546	      0.47988425	    -10.85373840	     -0.56607700	    -20.26887722	     20.44825865	      3.02939287	      0.35688944	     21.56365460	     -1.42817127	     -7.95956725	     26.25210222	     -7.43864167	      1.19275179	     27.95969999	      5.67603642	      0.48798882	      6.91323220	      8.18424410	     -7.95956725	    -25.80979725	     -5.15756810	      0.54808914	    -11.92358370	    -23.42882075	    -27.99571997	     67.53422415	     90.00000001	      0.00000000	      0.00000000	     -1.00641821	    -20.77920219	     13.67992427	     85.34945991	     90.00000001	      0.00000000	      0.00000000
      1.34000000	     12.08022932	      7.14431819	     17.85490635	      0.16676764	      0.90287838	      0.47963152	    -11.13261576	     -0.49433124	    -20.16667357	     20.60527609	      3.02344703	      0.35962991	     21.53742362	     -1.38836765	     -7.95671462	     26.54644403	     -7.21563124	      1.18395387	     28.03946744	      5.73491272	      0.48938103	      6.87771597	      8.26143473	     -7.95671462	    -25.76071979	     -5.10229452	      0.86093509	    -11.74091361	    -23.33084006	    -27.82521776	     67.72453616	     90.00000001	      0.00000000	      0.00000000	     -1.25975731	    -20.84044563	     13.63136385	     85.24859406	     90.00000001	      0.00000000	      0.00000000
      1.35000000	     12.44950396	      7.15578110	     17.58230308	      0.16942594	      0.90266331	      0.47924090	    -11.74541560	     -0.42203172	    -19.93566109	     20.53778938	      3.07281792	      0.35845205	     21.87678354	     -1.47422171	     -7.95186867	     26.62441445	     -6.96931148	      0.93308859	     28.27765857	      5.75834198	      0.49353825	      6.80168645	      8.46356116	     -7.95186867	    -25.95802898	     -5.01221625	      0.93948811	    -11.62274779	    -23.30288617	    -27.28927257	     68.63411840	     90.00000001	      0.00000000	      0.00000000	     -1.66665851	    -20.89856301	     13.30202250	     85.20143378	     90.00000001	      0.00000000	      0.00000000
      1.36000000	     12.86116126	      7.15623799	     17.25478756	      0.17224445	      0.90258436	      0.47878716	    -12.50256505	     -0.37414276	    -19.63228992	     20.31200559	      3.26854309	      0.35451138	     22.09305319	     -1.48116007	     -7.94510280	     26.48091712	     -6.66843357	      0.74939788	     28.31246658	      5.62251231	      0.49414576	      6.72821195	      8.81285901	     -7.94510280	    -26.18509006	     -4.93411973	      1.16833560	    -11.73137631	    -23.42425820	    -26.56826063	     69.46766710	     90.00000001	      0.00000000	      0.00000000	     -2.06138502	    -20.78947134	     12.86103529	     85.33736694	     90.00000001	      0.00000000	      0.00000000
